<svg version="1.2" xmlns="http://www.w3.org/2000/svg" viewBox="0 0 638 1080" width="638" height="1080">
	<style>
		.s0 { fill: #bb9a67 } 
		.s1 { fill: #ff0000 } 
	</style>
	<path class="s0" d="m262 261c1.88 33.79 2.29 67.52 2.24 101.35q-0.02 11.22-0.01 22.43 0 20.67-0.02 41.35-0.02 20.42-0.02 40.83 0 1.27 0 2.58 0 6.5 0 12.99-0.01 45.78-0.04 91.55-0.03 44.42-0.04 88.84c0 1.37 0 1.37 0 2.77q0 13.8-0.01 27.6-0.01 28.09-0.02 56.19c0 1.29 0 1.29 0 2.61q-0.03 85.95-0.08 171.91c26.73-0.33 53.46-0.66 81-1-4.62-2.31-9.24-4.62-14-7-3.62-2.95-6.79-5.69-10-9q-0.96-0.95-1.96-1.93c-10.05-10.55-14-24.37-14.42-38.69 0.41-14.07 5.57-25.57 14.86-36.02 1.52-1.36 1.52-1.36 3.52-1.36q0-0.99 0-2c11.94-10.75 27.7-17.7 43-22q1.88-0.54 3.81-1.1c14.29-3.47 28.18-1.2 41.19 5.1 1.38 0.65 1.38 0.65 2.8 1.31 8.91 4.54 20.08 10.57 27.2 17.69 0.48 4.27-0.47 6.23-3.07 9.58q-0.97 1.27-1.97 2.58-1.03 1.31-2.08 2.65-1 1.29-2.02 2.62-1.97 2.56-3.96 5.12-4 5.18-7.9 10.45c-4.3-0.11-6.4-1.15-9.37-4.06-3.86-3.6-7.95-5.91-12.63-8.25q-0.99-0.51-2.01-1.02c-9.79-4.77-19.36-6.23-29.93-3.23-10.06 3.66-17.49 11.33-24.06 19.56 5.19 14.71 24.27 22.95 37.31 29.38 29.01 13.86 60.5 23.09 91.69 30.62 0.39 5.2-0.96 9.09-3.03 13.77q-0.46 1.08-0.93 2.19-1.48 3.43-2.98 6.85-1 2.33-2 4.66-0.95 2.22-1.9 4.42-0.45 1.05-0.91 2.12c-2.13 4.87-2.13 4.87-3.25 5.99q-3.72 0.14-7.45 0.12c-1.18 0-1.18 0-2.39 0q-3.99 0-7.99-0.01-2.85 0-5.71 0-7.76 0-15.53-0.01-8.11-0.01-16.22-0.01-15.37 0-30.74-0.02-17.49-0.01-34.98-0.02-36-0.02-71.99-0.05c0.01 1.22 0.01 1.22 0.02 2.47 0.01 1.61 0.01 1.61 0.02 3.26 0.01 1.59 0.01 1.59 0.02 3.22-0.08 3.93-0.66 7.51-1.62 11.3q-0.26 1.06-0.53 2.15c-5.21 19.86-16.1 37.45-34.07 48.13-8.86 4.59-17.84 7.06-27.84 5.47-8.46-3.04-15.36-9.09-22-15q-1.15-1.01-2.34-2.05c-14.47-13.51-23.51-32.16-24.86-51.93q-0.14-4.63-0.11-9.27 0-1.64 0.01-3.32c0.21-14.22 2.58-32.64 11.3-44.43q1.48 0 3 0 0.13 0.97 0.27 1.98c4.28 33.93 4.28 33.93 21.92 62.33 5.44 4.1 9.34 5.23 16.13 4.35 4.9-1.21 8.61-3.77 12.68-6.66q1.19-0.83 2.41-1.68c4.71-3.68 4.71-3.68 7.41-8.85 0.31-3 0.34-5.87 0.26-8.87q0.01-1.7 0.03-3.45c0.01-3.81-0.04-7.63-0.09-11.44q-0.01-4.14 0.01-8.28 0-9.01-0.08-18.01-0.1-13.4-0.11-26.79-0.03-22.53-0.16-45.07-0.16-30.77-0.21-61.54-0.03-14.34-0.06-28.68 0-1.43-0.01-2.9-0.08-34.16-0.22-68.32 0-1.49-0.01-3.02-0.09-24.26-0.18-48.51-0.09-22.72-0.17-45.45-0.01-1.48-0.02-3.01-0.13-34.1-0.21-68.2c0-1.43 0-1.43-0.01-2.89q-0.03-14.31-0.06-28.62-0.05-30.74-0.21-61.47-0.13-22.41-0.16-44.82-0.01-13.31-0.12-26.63-0.07-8.89-0.05-17.78 0.01-5.07-0.05-10.14c-0.28-22.57-0.28-22.57 5.47-29.06 2.41-1.98 2.41-1.98 4.6-3.52q1.28-1.42 2.6-2.88 1-1.11 2.02-2.24 3.98-4.41 7.88-8.88 0.83-0.94 1.68-1.91 2.07-2.39 4.11-4.81c1.19-1.38 1.19-1.38 2.4-2.78 1.09-1.28 1.09-1.28 2.2-2.59 2.11-1.91 2.11-1.91 6.11-1.91z"/>
	<path class="s0" d="m324.31 129.89c3.99 1.64 6.03 4.49 8.69 7.8q0.76 0.91 1.54 1.85 1.44 1.75 2.87 3.51c1.66 2.12 1.66 2.12 4.15 4.4 3.56 4.32 3.13 8.88 3.06 14.26 0.01 1.62 0.01 1.62 0.02 3.28q0.01 5.48-0.03 10.96 0.01 3.96 0.02 7.92 0.02 8.62-0.01 17.23-0.03 12.82-0.01 25.64 0.02 21.55-0.02 43.11-0.04 21.36-0.04 42.71 0 1.32 0 2.68 0 5.39 0 10.77 0 50.56-0.07 101.12-0.05 44.94-0.05 89.89 0 1.42 0 2.88-0.01 4.33-0.01 8.65 0 5.74 0 11.49 0 1.41 0 2.86 0 44.24-0.04 88.48-0.01 14.69-0.01 29.38 0 1.32 0 2.67c0 1.32 0 1.32 0 2.67q-0.01 25.41-0.05 50.83-0.01 12.74-0.01 25.48 0 8.5-0.02 17-0.02 4.85-0.01 9.71 0 5.21-0.02 10.43 0.01 1.51 0.01 3.06-0.01 1.38-0.02 2.8 0 1.19 0 2.41c-0.28 2.43-1.04 4.07-2.25 6.18-1.03-0.03-1.03-0.03-2.09-0.07-10.94-0.21-18.98 1.41-27.91 8.07-1.81 1.91-3.37 3.92-5 6q-1.48 0-3 0-0.22-94.07-0.34-188.14 0-1.39 0-2.81-0.04-30.25-0.07-60.5-0.01-14.83-0.03-29.67 0-1.46 0-2.98-0.06-47.86-0.17-95.72-0.12-49.17-0.14-98.35 0-6.94-0.01-13.88 0-1.36 0-2.76-0.02-22.02-0.09-44.03-0.08-22.12-0.06-44.24 0.01-13.15-0.06-26.29-0.04-8.78 0-17.56 0.02-5.01-0.03-10.01-0.04-5.39 0.02-10.78-0.04-1.55-0.07-3.14c0.11-5.69 0.9-8.6 4.97-12.69q2.02-1.75 4.08-3.45 1.94-2.12 3.81-4.31 1.58-1.86 3.19-3.69 0.68-0.88 1.39-1.79c1.61-1.21 1.61-1.21 3.92-1.32z"/>
	<path class="s0" d="m457 273c3.97 0.54 4.74 0.69 7.44 3.93q1.3 1.96 2.56 3.94 1.45 2.21 2.91 4.41 0.75 1.15 1.53 2.34c2.61 3.98 5.31 7.89 8 11.82q0.8 1.17 1.62 2.39 4.12 6.06 8.43 11.98 0.83 1.15 1.69 2.33 1.59 2.18 3.21 4.34 0.71 0.98 1.44 1.98 0.63 0.84 1.27 1.71c1.23 2.5 1.25 4.08 0.9 6.83-1.94 1.64-1.94 1.64-4.44 3.25-3.21 2.71-4.42 4.13-5.37 8.26-0.36 4.49-0.22 8.97-0.09 13.46q0.02 2.58 0.03 5.16 0.06 7 0.21 13.99 0.12 7.45 0.18 14.89 0.12 12.39 0.31 24.79 0.24 16.97 0.32 33.95 0.03 5.29 0.06 10.58 0.01 1.3 0.01 2.64 0.1 14.84 0.24 29.68 0.01 1.36 0.02 2.75 0.09 9.84 0.18 19.67 0.02 1.43 0.03 2.91 0.27 28.86 0.56 57.73 0.07 6.2 0.13 12.4 0.01 1.53 0.03 3.11 0.25 25.25 0.45 50.5 0.22 26.21 0.5 52.42 0.16 14.61 0.26 29.21 0.09 12.34 0.24 24.69 0.09 6.27 0.12 12.54 0.02 5.75 0.12 11.5 0.03 3.04 0.02 6.07c0.2 9.58 2.63 16.4 6.88 24.85q0.52 1.07 1.06 2.17c10.84 21.46 27.96 39.41 50.74 47.87 11.67 3.45 24.51 3.03 36.2-0.04 2.37-0.15 4.63-0.1 7 0-2.07 12.4-15.17 23.9-24.81 30.89-11.91 7.89-24.88 12.44-39.32 10.73-24.13-5.13-46.87-26.21-59.97-46.32-12.55-19.9-17.57-40.53-17.31-63.83q0-2.87 0.01-5.75 0.02-7.82 0.08-15.64 0.05-8.47 0.07-16.93 0.05-14.65 0.13-29.3 0.12-23.17 0.17-46.34 0.02-7.94 0.04-15.88 0-0.99 0.01-2.01 0.06-23.55 0.15-47.1 0-1.03 0-2.08 0.09-24.02 0.2-48.03c0.01-1.04 0.01-1.04 0.01-2.09q0.03-5.21 0.05-10.42 0.01-1.02 0.01-2.08 0.01-2.08 0.02-4.16 0.18-35.36 0.24-70.73 0.03-21.15 0.18-42.29 0.1-14.5 0.1-29-0.01-8.35 0.08-16.7 0.08-7.66 0.04-15.33-0.01-2.75 0.05-5.51c0.2-11.59-1.63-19.75-7.73-29.74-3.32-5.44-4.42-9.29-2.97-15.72q0.37-1.04 0.76-2.11 0.41-1.19 0.84-2.42 0.46-1.25 0.93-2.54 0.47-1.31 0.94-2.66 1.49-4.18 3-8.35 1.01-2.84 2.02-5.68 2.48-6.95 4.98-13.88z"/>
	<path class="s0" d="m376 189c4.35 0.85 6.61 3.2 9.64 6.28q0.79 0.78 1.6 1.59 1.66 1.67 3.32 3.35 2.54 2.57 5.1 5.12 1.62 1.62 3.23 3.25 0.77 0.76 1.55 1.55c3.56 3.63 3.56 3.63 3.56 5.86q0.86 0.34 1.75 0.69c2.84 1.65 4.26 3.7 6.25 6.31q1.03 0.89 2.09 1.8c2.47 2.84 2.41 4.34 2.4 8.07q0.01 1.81 0.02 3.66-0.02 2.02-0.04 4.03 0 2.14 0.01 4.28 0 5.87-0.04 11.75-0.03 6.32-0.02 12.64-0.02 12.38-0.07 24.77-0.06 14.59-0.08 29.19c-0.09 48.38-0.36 96.76-0.67 145.15q-0.11 16.83-0.2 33.66-0.05 7.8-0.09 15.6-0.04 6.52-0.07 13.03-0.18 31.88-0.49 63.76-0.25 24.9-0.39 49.81-0.08 15.33-0.28 30.65-0.13 10.37-0.16 20.75-0.01 5.98-0.11 11.95-0.11 5.49-0.07 10.97-0.02 2.91-0.12 5.83c0.05 3.55 0.2 6.3 1.38 9.65 2.71 2.6 5.36 4.41 8.64 6.24 2.36 1.76 2.36 1.76 2.77 4.36-0.47 2.77-1.23 4.02-3.01 6.19q-0.82 1.03-1.67 2.09c-0.89 1.08-0.89 1.08-1.79 2.18-9.46 11.42-9.46 11.42-14.94 24.94-1.84-0.18-1.84-0.18-4-1-1.34-2.29-1.34-2.29-2.5-5.19-2.7-6.35-5.35-12.2-11.5-15.81-2.5-0.42-2.5-0.42-5.18-0.61-1.35-0.11-1.35-0.11-2.73-0.23q-1.03-0.08-2.09-0.16-0.26-60.66-0.49-121.31-0.01-3.55-0.03-7.1c-0.31-83.12-0.53-166.23-0.54-312.39q0-3.59 0-7.18 0.01-60.01 0.06-120.02z"/>
	<path class="s0" d="m165 573q1.97 0 4 0c5.13 9.6 10.19 19.23 15 29q2.09 4.2 4.28 8.35 0.55 1.07 1.12 2.17 1.07 2.05 2.16 4.08c2.06 3.99 3.11 6.92 2.44 11.4-1.12 2.38-2.24 4.47-3.63 6.69q-1.11 1.86-2.21 3.72-0.55 0.91-1.12 1.84-2.94 4.95-5.54 10.09c-1.5 2.66-1.5 2.66-3.59 5.2-2.44 3.35-3.44 5.31-3.91 9.46 2.02 7.1 5.99 13.56 9.47 20.02 6.92 13.43 11.27 28.28 14.53 42.98q0.24 1.07 0.5 2.17c8.85 40.01-2.71 88.88-24.63 123.24-4.68 7.08-9.94 13.53-15.87 19.59-0.99 1.05-0.99 1.05-2 2.11-13.04 12.74-31.63 18.17-49.46 18.14-22.76-0.38-45.96-9.46-62.54-25.25-4.97-5.67-8.17-9.34-8-17q2.25 0.22 4.5 0.44 1.38 0.13 2.8 0.27 3.17 0.35 6.32 0.85c26.29 3.2 54.7-3.16 75.75-19.5 17.86-15.18 32.86-37.87 34.87-61.91 0.69-29.76-12.92-59.68-25.24-86.15q-0.49-0.49-1-1c-0.57-5.26 1.07-8.86 3.5-13.37q0.53-1.03 1.07-2.08 1.7-3.28 3.43-6.55 2.3-4.36 4.56-8.75 0.54-1 1.09-2.02c1.86-3.47 1.86-3.47 2.14-7.29-0.98-2.41-1.89-2.99-4.13-4.26q-1-0.58-2.03-1.18-1.05-0.59-2.13-1.19c-7.47-4.28-7.47-4.28-8.5-5.31 0.34-5.5 2-9.33 4.94-13.87q1.24-1.99 2.47-3.99 0.64-1.01 1.3-2.06c2.1-3.39 4.1-6.83 6.1-10.27q1.25-2.11 2.5-4.22 2.96-5.04 5.85-10.11 1.61-2.77 3.21-5.54 0.75-1.33 1.52-2.69 0.71-1.22 1.45-2.47c0.62-1.1 0.62-1.1 1.26-2.21 0.69-0.78 0.69-0.78 1.4-1.57z"/>
	<path class="s0" d="m312 12c-0.41 2.78-1.06 4.08-2.86 6.3-7.39 9.3-11.74 21.54-11.08 33.45 1.11 8.11 4.46 16.02 10.94 21.25 10.43 6.07 19.78 9.97 32.04 7.35 10.54-3.18 20.55-9.26 25.95-19.17 1.51-3.31 2.47-6.6 3.01-10.18q2.46 0.49 5 1c2.33 13.42 1.12 26.69-6.5 38.28-9.54 12.9-22.77 21.49-38.5 24.72-9.45 1.09-16.62-0.65-25-5-1.3-0.67-1.3-0.67-2.62-1.35-12.14-6.78-22.54-16.74-26.79-30.21-0.99-4.09-1.08-8.06-1.03-12.25q0.02-1.31 0.03-2.66c0.36-13.6 6.39-27.84 16.1-37.59q1.64-1.48 3.31-2.94 1.17-1.26 2.38-2.56c4.63-4.31 9.14-8.44 15.62-8.44z"/>
	<path class="s0" d="m383 995c3.64 0.25 4.85 0.85 7.46 3.5 1.16 1.52 1.16 1.52 2.35 3.06q1.18 1.51 2.4 3.07 0.88 1.17 1.79 2.37c4.64-1.87 6.9-5.36 9.9-9.2 2.1-1.8 2.1-1.8 4.56-1.87 3.32 1.4 4.93 3.22 7.29 5.94q1.29 1.48 2.62 3 5.91 6.99 11.63 14.13 1.14 1.24 2.32 2.51c1.68 2.49 1.68 2.49 1.61 4.79-1.25 3.62-3.52 5.82-6.21 8.44q-0.78 0.78-1.59 1.59-1.67 1.66-3.35 3.3-2.57 2.53-5.12 5.08-1.62 1.61-3.25 3.22-0.76 0.76-1.55 1.54c-3.63 3.53-3.63 3.53-5.86 3.53q-0.34 0.86-0.69 1.75c-2.43 4.17-5.18 5.95-9.81 7.19-4.87 0.08-7.22-1.8-10.79-4.99-1.15-1.16-1.15-1.16-2.33-2.34q-1.27-1.28-2.59-2.59-1.31-1.33-2.67-2.71-1.3-1.3-2.64-2.64c-4.52-4.56-8.91-9.18-13.06-14.08-1.51-1.77-1.51-1.77-3.92-3.72-1.5-1.87-1.5-1.87-1.43-4.57 1.22-4.31 3.38-6.68 6.37-9.93q1.63-1.83 3.26-3.67 0.82-0.91 1.66-1.85c2.53-2.86 4.96-5.79 7.39-8.73 1.23-1.48 1.23-1.48 2.48-2.99q0.87-1.05 1.77-2.13z"/>
	<path class="s1" d=""/>
</svg>