<?xml version="1.0" encoding="UTF-8"?>
<svg version="1.1" xmlns="http://www.w3.org/2000/svg" width="1920" height="1080">
<path d="M0 0 C1.87660599 33.79085817 2.2859062 67.51793853 2.23522106 101.35354009 C2.22447098 108.82860734 2.22591217 116.30366247 2.22749493 123.77873555 C2.23009327 137.56232109 2.22355402 151.34588713 2.21146011 165.12946701 C2.19954928 178.7398628 2.1919129 192.35025043 2.18975449 205.9606514 C2.18961701 206.81286534 2.18947953 207.66507928 2.18933788 208.54311788 C2.18866104 212.87261349 2.18805834 217.2021091 2.18748413 221.53160472 C2.18330422 252.04809354 2.16988856 282.5645718 2.15087891 313.08105469 C2.13245444 342.69270777 2.11831462 372.30435794 2.10986328 401.91601562 C2.1094687 403.28968907 2.1094687 403.28968907 2.10906615 404.69111349 C2.10642869 413.88934871 2.10387712 423.08758395 2.10138843 432.28581922 C2.09631856 451.0169318 2.09067606 469.74804419 2.08468628 488.47915649 C2.08427441 489.77046349 2.08427441 489.77046349 2.08385422 491.08785749 C2.06551122 548.39190963 2.03336535 605.69595493 2 663 C28.73 662.67 55.46 662.34 83 662 C78.38 659.69 73.76 657.38 69 655 C65.38074981 652.04635904 62.21314972 649.31121713 59 646 C58.35417969 645.36320313 57.70835937 644.72640625 57.04296875 644.0703125 C46.99241185 633.51613292 43.03569903 619.6981288 42.625 605.375 C43.03474276 591.30716508 48.18733768 579.81197859 57.484375 569.36328125 C59 568 59 568 61 568 C61 567.34 61 566.68 61 566 C72.93791127 555.24814471 88.69641917 548.29604468 104 544 C105.25683594 543.63777344 106.51367188 543.27554688 107.80859375 542.90234375 C122.09887882 539.42716334 135.98664704 541.69756897 149 548 C150.38445312 548.6496875 150.38445312 548.6496875 151.796875 549.3125 C160.711856 553.85103578 171.88408679 559.88408679 179 567 C179.47754272 571.27267831 178.52754641 573.233467 175.9296875 576.58203125 C175.28 577.43216797 174.6303125 578.28230469 173.9609375 579.15820312 C173.27257813 580.03412109 172.58421875 580.91003906 171.875 581.8125 C171.20984375 582.67681641 170.5446875 583.54113281 169.859375 584.43164062 C168.54450733 586.13967952 167.22525305 587.84435164 165.90136719 589.54541016 C163.22593532 592.99928689 160.60797176 596.49503842 158 600 C153.70092383 599.8925231 151.59978182 598.84617556 148.625 595.9375 C144.77227681 592.33765825 140.6791176 590.02598041 136 587.6875 C135.33564941 587.35032959 134.67129883 587.01315918 133.98681641 586.66577148 C124.19586812 581.90263997 114.63339508 580.44264098 104.0625 583.4375 C94.00028495 587.09766306 86.56731285 594.77404841 80 603 C85.1892806 617.70718064 104.27003785 625.95128533 117.3125 632.375 C146.3207704 646.23797271 177.81256644 655.46641215 209 663 C209.39165662 668.20473739 208.03550083 672.08889977 205.97265625 676.76953125 C205.66428329 677.49113937 205.35591034 678.2127475 205.03819275 678.95622253 C204.05634047 681.24612545 203.05939146 683.5291106 202.0625 685.8125 C201.39554647 687.36613416 200.72952083 688.92016701 200.06445312 690.47460938 C199.43050892 691.9482703 198.79577123 693.42159019 198.16015625 694.89453125 C197.85908463 695.59238235 197.558013 696.29023346 197.24781799 697.00923157 C195.11885416 701.88114584 195.11885416 701.88114584 194 703 C191.5084728 703.09772312 189.04469492 703.12995818 186.55271912 703.12025452 C185.36924907 703.12153615 185.36924907 703.12153615 184.16187054 703.12284368 C181.49778373 703.12450089 178.83375882 703.11897321 176.16967773 703.11352539 C174.26807659 703.11324354 172.36647534 703.1134012 170.46487427 703.1139679 C165.28533716 703.11425597 160.10582299 703.10835763 154.92629123 703.10139394 C149.51971473 703.09516206 144.11313776 703.09455673 138.70655823 703.09336853 C128.46074709 703.09025472 118.21494657 703.08204067 107.96914011 703.07201904 C96.30791337 703.06085943 84.64668614 703.05534784 72.98545539 703.05032361 C48.9902977 703.0398581 24.99514944 703.0222577 1 703 C1.01094444 704.22405548 1.01094444 704.22405548 1.02210999 705.47283936 C1.03062233 707.08488251 1.03062233 707.08488251 1.03930664 708.72949219 C1.05025108 710.32479767 1.05025108 710.32479767 1.06141663 711.95233154 C0.98234265 715.87620825 0.39737355 719.45720236 -0.5625 723.25 C-0.73740967 723.960354 -0.91231934 724.67070801 -1.0925293 725.40258789 C-6.29564377 745.25686583 -17.18818323 762.85249509 -35.15625 773.52734375 C-44.01920152 778.1170865 -52.99767022 780.59493268 -63 779 C-71.4649058 775.95630931 -78.36139942 769.90647474 -85 764 C-85.77214844 763.32324219 -86.54429687 762.64648438 -87.33984375 761.94921875 C-101.81328368 748.44237059 -110.85233654 729.79386676 -112.20361328 710.02050781 C-112.30261485 706.92708192 -112.32902101 703.84493589 -112.3125 700.75 C-112.30758545 699.65316895 -112.3026709 698.55633789 -112.29760742 697.42626953 C-112.09314196 683.21434684 -109.72251544 664.7931969 -101 653 C-100.01 653 -99.02 653 -98 653 C-97.91024902 653.65258789 -97.82049805 654.30517578 -97.72802734 654.97753906 C-93.4527013 688.91266127 -93.4527013 688.91266127 -75.8125 717.3125 C-70.36983408 721.40765869 -66.47242619 722.53696377 -59.6796875 721.66015625 C-54.77835301 720.45268463 -51.07352195 717.88614323 -47 715 C-46.20375011 714.44403087 -45.40750022 713.88806174 -44.58712155 713.31524505 C-39.88214469 709.64422142 -39.88214469 709.64422142 -37.17852294 704.46631093 C-36.86610174 701.47483863 -36.84259224 698.60251348 -36.91770935 695.59552956 C-36.91002112 694.45977277 -36.90233289 693.32401599 -36.89441168 692.15384233 C-36.87957773 688.33707669 -36.9291685 684.52386748 -36.97827148 680.70742798 C-36.98582489 677.94813647 -36.97971592 675.18891337 -36.97421169 672.4296211 C-36.96941766 666.4249776 -36.99793347 660.42121196 -37.04827499 654.4167881 C-37.12292287 645.48808481 -37.14567041 636.55977754 -37.15739396 627.63079657 C-37.17840545 612.60822499 -37.24005649 597.58608253 -37.32351685 582.56373978 C-37.43695179 562.04771064 -37.49132781 541.53182512 -37.52991712 521.01553409 C-37.54797397 511.45747652 -37.5689212 501.89942527 -37.59062195 492.34137535 C-37.59279107 491.38453509 -37.59496019 490.42769483 -37.59719504 489.4418594 C-37.64949624 466.66722195 -37.73010483 443.89269842 -37.81542969 421.11816406 C-37.8191525 420.12168498 -37.8228753 419.1252059 -37.82671092 418.09853048 C-37.8871609 401.92834084 -37.94932711 385.75815788 -38.01171803 369.58797562 C-38.07014988 354.43951282 -38.12795892 339.29104785 -38.18457031 324.14257812 C-38.18830162 323.14693756 -38.19203292 322.151297 -38.1958773 321.12548551 C-38.28091191 298.39442439 -38.35785025 275.66337505 -38.40937805 252.93221092 C-38.41263147 251.49916832 -38.41263147 251.49916832 -38.4159506 250.03717536 C-38.43741888 240.49944086 -38.4574703 230.96170447 -38.47540683 221.42396267 C-38.51425882 200.93110631 -38.57794477 180.438753 -38.69183746 159.94616777 C-38.774484 145.00790094 -38.82629315 130.06980337 -38.84589362 115.13131787 C-38.85863036 106.25471164 -38.89692618 97.37905202 -38.97140903 88.50274487 C-39.01872098 82.57353707 -39.03337937 76.64482883 -39.02156882 70.71544558 C-39.01579885 67.33630471 -39.02928547 63.9602468 -39.07283962 60.58117945 C-39.35030083 38.0107385 -39.35030083 38.0107385 -33.59873962 31.52101707 C-31.18688869 29.53574789 -31.18688869 29.53574789 -29 28 C-28.14148438 27.04867188 -27.28296875 26.09734375 -26.3984375 25.1171875 C-25.73070312 24.37726563 -25.06296875 23.63734375 -24.375 22.875 C-21.72814662 19.93506943 -19.09901752 16.98228278 -16.5 14 C-15.94699219 13.3709375 -15.39398437 12.741875 -14.82421875 12.09375 C-13.43740447 10.50203169 -12.06809154 8.8950455 -10.70703125 7.28125 C-9.52173828 5.90453125 -9.52173828 5.90453125 -8.3125 4.5 C-7.22388672 3.21609375 -7.22388672 3.21609375 -6.11328125 1.90625 C-4 0 -4 0 0 0 Z " fill="#BB9A67" transform="translate(972,262)"/>
<path d="M0 0 C3.98583734 1.63952321 6.02938365 4.48381629 8.6875 7.79296875 C9.19539063 8.40591797 9.70328125 9.01886719 10.2265625 9.65039062 C11.18909857 10.81407206 12.14679756 11.98178681 13.09765625 13.1550293 C14.75801963 15.27342819 14.75801963 15.27342819 17.24806362 17.55820787 C20.81141439 21.87569424 20.37533127 26.43456798 20.30832577 31.81208229 C20.31787839 33.43897549 20.31787839 33.43897549 20.32762399 35.09873521 C20.34292855 38.75252228 20.32242214 42.4052395 20.30223083 46.05899048 C20.30584175 48.697095 20.31143393 51.33512759 20.31945282 53.97321546 C20.33290235 59.71881692 20.32774448 65.46416912 20.31044388 71.20975685 C20.28478899 79.75340503 20.28773387 88.29687573 20.29648646 96.84054937 C20.31035785 111.21300085 20.30065664 125.58534732 20.27728081 139.95778275 C20.25414699 154.19295762 20.24047457 168.42808606 20.23976326 182.66328049 C20.23970981 183.54816314 20.23965636 184.4330458 20.23960129 185.34474308 C20.23941269 188.93656956 20.23929112 192.52839602 20.23925897 196.1202225 C20.23891802 229.82566877 20.21184344 263.53104429 20.17106687 297.2364635 C20.13493371 327.19866446 20.1158037 357.16082428 20.11303711 387.12304688 C20.11294561 388.07582719 20.1128541 389.02860751 20.11275982 390.01025996 C20.11248339 392.89265547 20.1122119 395.77505099 20.1119408 398.6574465 C20.11157778 402.48564887 20.11120438 406.31385124 20.11082363 410.1420536 C20.1107334 411.08661555 20.11064318 412.0311775 20.11055022 413.00436254 C20.10757041 442.49960998 20.09010692 471.99484975 20.07013602 501.49008995 C20.06351543 511.28165719 20.05782805 521.07322322 20.05494571 530.86479235 C20.05468453 531.74723133 20.05442336 532.62967032 20.05415427 533.53884988 C20.05376558 534.859875 20.05376558 534.859875 20.05336904 536.2075875 C20.04837822 553.14875373 20.037195 570.08988952 20.01206874 587.03103901 C19.99963932 595.52634366 19.99262249 604.02161116 19.99341112 612.51692511 C19.99337344 618.18456163 19.98608971 623.85215836 19.97278446 629.51977921 C19.96538844 632.75350707 19.96226493 635.98713852 19.96566027 639.22087558 C19.96879718 642.69751904 19.95979389 646.17391926 19.94756222 649.65053749 C19.95138701 650.66349109 19.9552118 651.67644469 19.95915249 652.72009385 C19.95337678 653.64349926 19.94760107 654.56690467 19.94165033 655.51829207 C19.94084359 656.31369866 19.94003686 657.10910525 19.93920567 657.92861507 C19.65807548 660.35994405 18.89927059 661.99583009 17.6875 664.10546875 C16.65302734 664.07066406 16.65302734 664.07066406 15.59765625 664.03515625 C4.65739939 663.8250553 -3.38418137 665.44441142 -12.3125 672.10546875 C-14.12616409 674.01868958 -15.68131389 676.02941371 -17.3125 678.10546875 C-18.3025 678.10546875 -19.2925 678.10546875 -20.3125 678.10546875 C-20.4495902 615.3913997 -20.57678959 552.67731309 -20.65124512 489.96313477 C-20.65234957 489.03522218 -20.65345403 488.1073096 -20.65459196 487.15127845 C-20.67853417 466.98614591 -20.70069578 446.82101177 -20.72102264 426.65587527 C-20.73100149 416.76716519 -20.7413739 406.87845554 -20.75195312 396.98974609 C-20.7529992 396.00569083 -20.75404527 395.02163557 -20.75512304 394.00776045 C-20.78922522 362.10092567 -20.84932413 330.19420409 -20.92287777 298.28743792 C-20.99831479 265.504199 -21.04757802 232.72102276 -21.06381992 199.93769851 C-21.06612522 195.30927525 -21.06873032 190.6808522 -21.07151794 186.0524292 C-21.07205733 185.14147242 -21.07259671 184.23051563 -21.07315244 183.2919541 C-21.08261309 168.61695706 -21.11973599 153.94215357 -21.16715627 139.26723552 C-21.21421953 124.52064622 -21.23225263 109.77424915 -21.22051102 95.02758735 C-21.21441765 86.26182964 -21.23072407 77.49677448 -21.27888034 68.73114339 C-21.30884463 62.87796569 -21.30983486 57.02524886 -21.28715451 51.17203954 C-21.27505618 47.83482199 -21.28006446 44.50001614 -21.31156546 41.16276383 C-21.34353463 37.56789921 -21.32646076 33.97650657 -21.29688263 30.38169861 C-21.31789874 29.34545107 -21.33891485 28.30920354 -21.36056781 27.24155456 C-21.25432207 21.5529238 -20.46465902 18.64951328 -16.38891554 14.55231571 C-15.04326209 13.38799097 -13.68600826 12.23679998 -12.3125 11.10546875 C-11.02127162 9.68626021 -9.74343557 8.25423245 -8.5 6.79296875 C-7.44490992 5.55743572 -6.38296956 4.32770108 -5.3125 3.10546875 C-4.85488281 2.51378906 -4.39726563 1.92210937 -3.92578125 1.3125 C-2.3125 0.10546875 -2.3125 0.10546875 0 0 Z " fill="#BB9A67" transform="translate(1034.3125,130.89453125)"/>
<path d="M0 0 C3.96767142 0.53556962 4.74240749 0.69039362 7.4375 3.9296875 C8.30637608 5.23512 9.15951639 6.55110916 10 7.875 C10.9696522 9.34271218 11.93972176 10.8101487 12.91015625 12.27734375 C13.41434082 13.05062012 13.91852539 13.82389648 14.43798828 14.62060547 C17.04879585 18.59761868 19.74676725 22.51433676 22.4375 26.4375 C22.9739917 27.22640625 23.5104834 28.0153125 24.06323242 28.828125 C26.81535395 32.86594219 29.60926091 36.8629002 32.4921875 40.80859375 C33.0497876 41.57695557 33.6073877 42.34531738 34.18188477 43.13696289 C35.24258285 44.59278252 36.31292473 46.04164082 37.39428711 47.48217773 C37.86874268 48.13516846 38.34319824 48.78815918 38.83203125 49.4609375 C39.25202393 50.02603027 39.6720166 50.59112305 40.10473633 51.17333984 C41.32670958 53.66660514 41.35470128 55.24781373 41 58 C39.0629698 59.64167321 39.0629698 59.64167321 36.55639076 61.25186348 C33.35157901 63.95579481 32.14178445 65.38421703 31.19096637 69.51370788 C30.82500422 73.99819804 30.97165098 78.47783656 31.0977478 82.97018433 C31.11268611 84.69076779 31.12356582 86.41139055 31.13070321 88.13202405 C31.16110681 92.797383 31.24684278 97.46028127 31.34204343 102.12470594 C31.43329258 107.08591062 31.47218762 112.04752559 31.51596642 117.00933647 C31.59460714 125.27308224 31.70146244 133.53600805 31.82775116 141.79915619 C31.99871879 153.11663213 32.08969458 164.43346594 32.14923096 175.75201416 C32.16865139 179.2779616 32.18846501 182.80390675 32.20842934 186.32985115 C32.21331283 187.19985678 32.21819633 188.06986242 32.22322781 188.96623186 C32.28044308 198.86138033 32.36622854 208.75625383 32.45596313 218.65115356 C32.46419943 219.55987195 32.47243573 220.46859033 32.48092161 221.40484564 C32.54065157 227.96001376 32.60213647 234.51516481 32.6640625 241.0703125 C32.67309489 242.02983438 32.68212727 242.98935626 32.69143337 243.97795457 C32.87262403 263.22131681 33.05807747 282.46463618 33.25373268 301.70785713 C33.29568204 305.84039371 33.33757349 309.97293087 33.37939453 314.10546875 C33.38978313 315.1316442 33.40017172 316.15781965 33.41087513 317.21509133 C33.58062989 334.04843412 33.72678425 350.88190427 33.86430486 367.71553792 C34.00749763 385.19088431 34.17278063 402.66591572 34.35933721 420.14085376 C34.46271979 429.87843638 34.55650239 439.61589671 34.62483597 449.3537941 C34.68258835 457.58131963 34.76017849 465.80835398 34.8636709 474.0354367 C34.91567371 478.21798987 34.9583973 482.40007083 34.9752655 486.5829258 C34.9909443 490.41729029 35.03417011 494.25036972 35.09833543 498.08422028 C35.1253348 500.10752451 35.12378898 502.13114955 35.12081969 504.15463173 C35.32210812 513.72996445 37.74852456 520.54747251 42 529 C42.34903086 529.71690069 42.69806173 530.43380139 43.05766928 531.17242634 C53.89569727 552.6293599 71.01721274 570.57622708 93.796875 579.0390625 C105.47122567 582.48976836 118.3104008 582.06612438 130 579 C132.36575637 578.84937132 134.6274594 578.89904083 137 579 C134.93293284 591.40240297 121.82881516 602.9029143 112.19140625 609.88671875 C100.27520944 617.77737049 87.31484069 622.3341162 72.875 620.625 C48.73944536 615.4875748 26.00001161 594.41097671 12.89501953 574.3046875 C0.34796237 554.40206718 -4.66512708 533.76939072 -4.41372681 510.46829224 C-4.40829727 508.55325826 -4.40468199 506.63821844 -4.40270269 504.72317779 C-4.39232642 499.50774539 -4.35710062 494.29274155 -4.31767201 489.0774591 C-4.2796008 483.43458719 -4.26534085 477.79164978 -4.24850464 472.14868164 C-4.21658525 462.3831816 -4.17106716 452.61782344 -4.11726761 442.85242081 C-4.03314889 427.40442688 -3.98868618 411.95643507 -3.95004272 396.50827026 C-3.93628532 391.21410494 -3.92222093 385.91994046 -3.90802574 380.62577629 C-3.90625914 379.96498012 -3.90449255 379.30418395 -3.90267242 378.62336365 C-3.86053197 362.92189611 -3.80846669 347.22046661 -3.75244141 331.51904297 C-3.75000227 330.83272945 -3.74756313 330.14641593 -3.74505009 329.43930503 C-3.688023 313.42832298 -3.62414077 297.41739028 -3.54650879 281.40649414 C-3.54150341 280.37345199 -3.54150341 280.37345199 -3.53639692 279.31954029 C-3.51954346 275.84656412 -3.50261017 272.37358834 -3.48564796 268.9006127 C-3.4822956 268.21418052 -3.47894325 267.52774833 -3.4754893 266.82051518 C-3.46871967 265.43502316 -3.46194327 264.04953118 -3.4551601 262.66403923 C-3.33993189 239.08525168 -3.26296429 215.50662449 -3.22179639 191.9275769 C-3.19570084 177.82969796 -3.13773603 163.73267442 -3.0382493 149.63511895 C-2.97266074 139.97071841 -2.94367469 130.30663999 -2.94303901 120.64201869 C-2.94151087 115.07357015 -2.92388405 109.50643503 -2.86177826 103.9383049 C-2.80511182 98.8289768 -2.7957613 93.72170844 -2.82216017 88.61215447 C-2.82359676 86.77579302 -2.80844118 84.93931678 -2.7738833 83.10327996 C-2.56747193 71.51296685 -4.39539224 63.35401191 -10.50254563 53.36300886 C-13.8172099 47.92046462 -14.91674228 44.07120217 -13.46850586 37.6396637 C-13.21979736 36.94461227 -12.97108887 36.24956085 -12.71484375 35.53344727 C-12.43455322 34.7331459 -12.1542627 33.93284454 -11.86547852 33.10829163 C-11.55924561 32.26946945 -11.2530127 31.43064728 -10.9375 30.56640625 C-10.62675537 29.68846909 -10.31601074 28.81053192 -9.99584961 27.9059906 C-9.00747946 25.1210505 -8.00401568 22.34183296 -7 19.5625 C-6.32451463 17.66767611 -5.65002464 15.77249706 -4.9765625 13.87695312 C-3.3292018 9.24711163 -1.66828897 4.62233939 0 0 Z " fill="#BB9A67" transform="translate(1167,274)"/>
<path d="M0 0 C4.35305596 0.8478441 6.61441746 3.19587308 9.640625 6.27734375 C10.16767029 6.80389053 10.69471558 7.33043732 11.23773193 7.87294006 C12.34731917 8.98486356 13.45322498 10.10047135 14.55566406 11.21948242 C16.24906795 12.93655493 17.95547749 14.63984381 19.6640625 16.34179688 C20.74037924 17.42368795 21.81592732 18.50634437 22.890625 19.58984375 C23.40304749 20.10135483 23.91546997 20.61286591 24.44342041 21.13987732 C28 24.76895966 28 24.76895966 28 27 C28.5775 27.226875 29.155 27.45375 29.75 27.6875 C32.58974845 29.34401993 34.01499967 31.39468706 36 34 C36.69119021 34.59299802 37.38238043 35.18599604 38.0945158 35.79696369 C40.55747827 38.64453165 40.4962702 40.14371347 40.48774719 43.87358093 C40.49469353 45.08165846 40.50163986 46.28973598 40.50879669 47.53442192 C40.49621846 48.87671117 40.48326287 50.21899693 40.4699707 51.5612793 C40.47045914 52.98607605 40.47269786 54.4108731 40.47653961 55.83566475 C40.48195007 59.75361042 40.46225397 63.67109109 40.43840623 67.58895326 C40.41700704 71.80144921 40.4184005 76.01394476 40.41691589 80.22648621 C40.41030259 88.48478927 40.38195981 96.74288597 40.34662217 105.00111049 C40.30593532 114.73019218 40.28851587 124.45927945 40.27113461 134.18842554 C40.18138749 182.57162718 39.90662315 230.95420168 39.59741688 279.3364296 C39.52589175 290.55766193 39.45967302 301.77891393 39.39746773 313.0002017 C39.36857422 318.20111462 39.33915121 323.40202458 39.30973977 328.6029346 C39.28519704 332.94462364 39.26084025 337.28631354 39.23690605 341.62800598 C39.11913723 362.88200513 38.95919299 384.13506088 38.74545479 405.38831902 C38.57902944 421.9913654 38.4523886 438.59436862 38.36088562 455.19799805 C38.30303322 465.41703948 38.21216492 475.63466547 38.07702613 485.85298198 C37.98853532 492.76773752 37.94014956 499.68203611 37.92355371 506.5973354 C37.91272969 510.5838264 37.88379395 514.56805016 37.80654144 518.55385399 C37.73604071 522.20974577 37.71671236 525.86225895 37.7375536 529.51873803 C37.73543123 531.46244301 37.67889891 533.40585521 37.62026215 535.34867668 C37.67084115 538.89915386 37.81872337 541.64734027 39 545 C41.71151074 547.60096992 44.36040495 549.4071082 47.6382103 551.23508358 C50 553 50 553 50.40645218 555.59582615 C49.93698135 558.37275672 49.17930952 559.61884403 47.40234375 561.78515625 C46.85094727 562.47520752 46.29955078 563.16525879 45.73144531 563.8762207 C44.84344238 564.95842896 44.84344238 564.95842896 43.9375 566.0625 C34.47685772 577.48077585 34.47685772 577.48077585 29 591 C27.15625 590.82421875 27.15625 590.82421875 25 590 C23.65625 587.70703125 23.65625 587.70703125 22.5 584.8125 C19.79912372 578.45555949 17.14972194 572.6096194 11 569 C8.49862627 568.58079482 8.49862627 568.58079482 5.8203125 568.39453125 C4.46703857 568.27815308 4.46703857 568.27815308 3.08642578 568.15942383 C2.39790527 568.10681396 1.70938477 568.0542041 1 568 C0.82572122 527.56294909 0.66292037 487.12585696 0.50904435 446.68872362 C0.50003325 444.32123485 0.49100388 441.95374616 0.48197412 439.58625746 C0.16535109 356.47145933 -0.05468765 273.3572473 -0.06315851 127.19725746 C-0.06249763 124.80390275 -0.06185505 122.41054803 -0.06121445 120.01719332 C-0.05038542 80.01145587 -0.03052867 40.0057275 0 0 Z " fill="#BB9A67" transform="translate(1086,190)"/>
<path d="M0 0 C1.32 0 2.64 0 4 0 C9.13353894 9.60161912 14.1859018 19.23189496 19.00390625 28.99609375 C20.39068302 31.80083417 21.82038027 34.57874684 23.27734375 37.34765625 C23.64915771 38.0636499 24.02097168 38.77964355 24.40405273 39.51733398 C25.11395944 40.88258785 25.83298245 42.24315557 26.56274414 43.59790039 C28.62156681 47.59150776 29.67402363 50.52424659 29 55 C27.87640356 57.38122595 26.7559065 59.47171345 25.375 61.6875 C24.63456792 62.92787916 23.89499286 64.16877029 23.15625 65.41015625 C22.78886719 66.01875488 22.42148437 66.62735352 22.04296875 67.25439453 C20.07261376 70.55215628 18.23747156 73.91237885 16.49609375 77.3359375 C15 80 15 80 12.91015625 82.5390625 C10.47087801 85.89125873 9.47415304 87.84572337 9 92 C11.01786872 99.10306855 14.98631813 105.55863745 18.46679688 112.02490234 C25.3877074 125.45455451 29.7354361 140.29997244 33 155 C33.16371094 155.71655762 33.32742188 156.43311523 33.49609375 157.17138672 C42.34533438 197.18494689 30.78558158 246.04883327 8.87109375 280.4140625 C4.18771812 287.49104922 -1.06514114 293.93997716 -7 300 C-7.99193359 301.04607422 -7.99193359 301.04607422 -9.00390625 302.11328125 C-22.03690917 314.8495175 -40.62995028 320.27585091 -58.45678711 320.24658203 C-81.21576614 319.87040056 -104.41739327 310.78593345 -121 295 C-125.96806686 289.33130833 -129.1666293 285.66494784 -129 278 C-127.49986903 278.14447983 -125.99990298 278.29067215 -124.5 278.4375 C-123.57445312 278.52773438 -122.64890625 278.61796875 -121.6953125 278.7109375 C-119.58162606 278.93762271 -117.47566726 279.23653439 -115.375 279.5625 C-89.08930412 282.75657858 -60.68392989 276.4018861 -39.625 260.0625 C-21.77332228 244.87525179 -6.7733386 222.19284977 -4.76171875 198.15234375 C-4.0745718 168.38803126 -17.67593822 138.46994139 -30 112 C-30.33 111.67 -30.66 111.34 -31 111 C-31.56877344 105.73884572 -29.93310836 102.14499039 -27.5 97.625 C-27.14558838 96.93889648 -26.79117676 96.25279297 -26.42602539 95.54589844 C-25.29539818 93.3577803 -24.1496267 91.17818949 -23 89 C-21.46516762 86.09035913 -19.9466761 83.17301447 -18.4375 80.25 C-18.07914063 79.58307129 -17.72078125 78.91614258 -17.3515625 78.22900391 C-15.49257504 74.76381152 -15.49257504 74.76381152 -15.20532227 70.93725586 C-16.1932753 68.52883578 -17.09866815 67.94875674 -19.34375 66.67578125 C-20.01277344 66.28712891 -20.68179688 65.89847656 -21.37109375 65.49804688 C-22.07363281 65.10681641 -22.77617188 64.71558594 -23.5 64.3125 C-30.97177419 60.02822581 -30.97177419 60.02822581 -32 59 C-31.66382632 53.49772867 -30.00155495 49.67010267 -27.0625 45.125 C-26.23597232 43.79880405 -25.41048962 42.47195639 -24.5859375 41.14453125 C-24.15764648 40.46213379 -23.72935547 39.77973633 -23.28808594 39.07666016 C-21.1894944 35.69329783 -19.19367953 32.25114582 -17.1875 28.8125 C-16.35584602 27.4034231 -15.5238047 25.99457474 -14.69140625 24.5859375 C-12.71349789 21.23141676 -10.77247495 17.8573506 -8.83984375 14.4765625 C-7.76858869 12.62999971 -6.69697993 10.78364207 -5.625 8.9375 C-5.12508545 8.04973877 -4.6251709 7.16197754 -4.11010742 6.24731445 C-3.6329126 5.43222412 -3.15571777 4.61713379 -2.6640625 3.77734375 C-2.03685303 2.68280884 -2.03685303 2.68280884 -1.39697266 1.56616211 C-0.70547119 0.79091187 -0.70547119 0.79091187 0 0 Z " fill="#BB9A67" transform="translate(875,574)"/>
<path d="M0 0 C-0.4115579 2.77801582 -1.06372701 4.0790215 -2.85546875 6.30078125 C-10.24563895 15.60243445 -14.60190292 27.84057772 -13.9375 39.75 C-12.8295183 47.8594831 -9.47679525 55.77058754 -3 61 C7.43268791 67.06551623 16.78057287 70.96965882 29.03515625 68.3515625 C39.57736856 65.16849452 49.59134869 59.08831303 54.9921875 49.1796875 C56.49503501 45.87342297 57.4568612 42.58471611 58 39 C59.65 39.33 61.3 39.66 63 40 C65.33460676 53.42398885 64.12086853 66.69117912 56.5 78.28125 C46.96202753 91.17517574 33.72964651 99.76571963 18 103 C8.54886529 104.09494853 1.3750801 102.35458085 -7 98 C-8.29744141 97.33097656 -8.29744141 97.33097656 -9.62109375 96.6484375 C-21.76116845 89.86817737 -32.15969283 79.90771494 -36.40893555 66.43994141 C-37.39906194 62.35265385 -37.48945486 58.37717258 -37.4375 54.1875 C-37.42847656 53.3094873 -37.41945313 52.43147461 -37.41015625 51.52685547 C-37.04906915 37.92841558 -31.01904966 23.68643634 -21.3125 13.9375 C-20.21494214 12.95093113 -19.11149779 11.97083678 -18 11 C-17.21625 10.154375 -16.4325 9.30875 -15.625 8.4375 C-10.98813262 4.13183743 -6.48362634 0 0 0 Z " fill="#BB9A67" transform="translate(1022,13)"/>
<path d="M0 0 C3.64409288 0.25243272 4.85005763 0.84719705 7.45703125 3.50390625 C8.62298828 5.01791016 8.62298828 5.01791016 9.8125 6.5625 C10.60269531 7.57441406 11.39289063 8.58632813 12.20703125 9.62890625 C12.79871094 10.41136719 13.39039063 11.19382812 14 12 C18.63643078 10.13097111 20.89549054 6.64453198 23.90234375 2.80078125 C26 1 26 1 28.45703125 0.92578125 C31.77800304 2.32864952 33.39058912 4.15319595 35.75 6.875 C36.61367187 7.865 37.47734375 8.855 38.3671875 9.875 C42.3100155 14.53073786 46.18695424 19.23740198 50 24 C50.76570313 24.82757812 51.53140625 25.65515625 52.3203125 26.5078125 C54 29 54 29 53.93481445 31.29711914 C52.68032625 34.92429045 50.41497923 37.1213016 47.72265625 39.73828125 C47.19610947 40.26391159 46.66956268 40.78954193 46.12705994 41.33110046 C45.01626686 42.43586864 43.90063389 43.53578921 42.78051758 44.63110352 C41.06135991 46.31361579 39.35888131 48.01172155 37.65820312 49.71289062 C36.57646234 50.78480514 35.49381096 51.85580166 34.41015625 52.92578125 C33.89864517 53.43506668 33.38713409 53.94435211 32.86012268 54.46907043 C29.23216999 58 29.23216999 58 27 58 C26.773125 58.5775 26.54625 59.155 26.3125 59.75 C23.88113213 63.9180592 21.12820835 65.69780134 16.5 66.9375 C11.62641772 67.02452826 9.27951365 65.14393153 5.70751953 61.95043945 C4.55678955 60.79354614 4.55678955 60.79354614 3.3828125 59.61328125 C2.52816406 58.75669922 1.67351562 57.90011719 0.79296875 57.01757812 C-0.08746094 56.12490234 -0.96789063 55.23222656 -1.875 54.3125 C-2.74769531 53.43916016 -3.62039063 52.56582031 -4.51953125 51.66601562 C-9.04447494 47.11045201 -13.42941973 42.49484019 -17.58056641 37.5949707 C-19.09240984 35.82196052 -19.09240984 35.82196052 -21.5 33.875 C-23 32 -23 32 -22.93359375 29.296875 C-21.71388495 24.98961881 -19.55001148 22.622335 -16.5625 19.375 C-15.47440745 18.15179989 -14.38718384 16.92782632 -13.30078125 15.703125 C-12.75115723 15.09017578 -12.2015332 14.47722656 -11.63525391 13.84570312 C-9.10786033 10.99304629 -6.67737621 8.06277044 -4.25 5.125 C-3.02023437 3.64386719 -3.02023437 3.64386719 -1.765625 2.1328125 C-1.18296875 1.42898438 -0.6003125 0.72515625 0 0 Z " fill="#BB9A67" transform="translate(1093,996)"/>
<path d="" fill="#FF0000" transform="translate(0,0)"/>
</svg>
